<mxfile host="65bd71144e">
    <diagram id="d39FdUi9SgSwldMhHh4e" name="Page-1">
        <mxGraphModel dx="1179" dy="662" grid="0" gridSize="10" guides="1" tooltips="1" connect="1" arrows="1" fold="1" page="1" pageScale="1" pageWidth="850" pageHeight="1100" background="none" math="0" shadow="0">
            <root>
                <mxCell id="0"/>
                <mxCell id="1" parent="0"/>
                <mxCell id="5" value="" style="group;fontColor=#FFFFFF;" vertex="1" connectable="0" parent="1">
                    <mxGeometry x="450" y="50" width="200" height="120" as="geometry"/>
                </mxCell>
                <mxCell id="2" value="Main" style="swimlane;whiteSpace=wrap;html=1;fontColor=#FFFFFF;" vertex="1" parent="5">
                    <mxGeometry width="200" height="120" as="geometry"/>
                </mxCell>
                <mxCell id="3" value="main()" style="text;html=1;align=center;verticalAlign=middle;resizable=0;points=[];autosize=1;strokeColor=none;fillColor=none;fontColor=#FFFFFF;" vertex="1" parent="2">
                    <mxGeometry x="10" y="70" width="60" height="30" as="geometry"/>
                </mxCell>
                <mxCell id="4" value="" style="endArrow=none;html=1;entryX=1;entryY=0.5;entryDx=0;entryDy=0;exitX=0;exitY=0.5;exitDx=0;exitDy=0;fontColor=#FFFFFF;" edge="1" parent="5" source="2" target="2">
                    <mxGeometry width="50" height="50" relative="1" as="geometry">
                        <mxPoint x="-120" y="230" as="sourcePoint"/>
                        <mxPoint x="-70" y="180" as="targetPoint"/>
                    </mxGeometry>
                </mxCell>
                <mxCell id="6" value="" style="group;fontColor=#FFFFFF;" vertex="1" connectable="0" parent="1">
                    <mxGeometry x="130" y="50" width="200" height="120" as="geometry"/>
                </mxCell>
                <mxCell id="7" value="DataExtractionMethodFactory" style="swimlane;whiteSpace=wrap;html=1;fontColor=#FFFFFF;" vertex="1" parent="6">
                    <mxGeometry width="200" height="120" as="geometry"/>
                </mxCell>
                <mxCell id="8" value="getDataExtractionMethod()" style="text;html=1;align=center;verticalAlign=middle;resizable=0;points=[];autosize=1;strokeColor=none;fillColor=none;fontColor=#FFFFFF;" vertex="1" parent="7">
                    <mxGeometry y="70" width="170" height="30" as="geometry"/>
                </mxCell>
                <mxCell id="9" value="" style="endArrow=none;html=1;entryX=1;entryY=0.5;entryDx=0;entryDy=0;exitX=0;exitY=0.5;exitDx=0;exitDy=0;fontColor=#FFFFFF;" edge="1" parent="6" source="7" target="7">
                    <mxGeometry width="50" height="50" relative="1" as="geometry">
                        <mxPoint x="-120" y="230" as="sourcePoint"/>
                        <mxPoint x="-70" y="180" as="targetPoint"/>
                    </mxGeometry>
                </mxCell>
                <mxCell id="11" style="edgeStyle=none;html=1;exitX=0;exitY=0.5;exitDx=0;exitDy=0;entryX=1;entryY=0.5;entryDx=0;entryDy=0;fontColor=#FFFFFF;" edge="1" parent="1" source="2" target="7">
                    <mxGeometry relative="1" as="geometry"/>
                </mxCell>
                <mxCell id="12" value="asks" style="edgeLabel;html=1;align=center;verticalAlign=middle;resizable=0;points=[];fontColor=#FFFFFF;" vertex="1" connectable="0" parent="11">
                    <mxGeometry x="0.32" relative="1" as="geometry">
                        <mxPoint x="19" as="offset"/>
                    </mxGeometry>
                </mxCell>
                <mxCell id="29" style="edgeStyle=none;html=1;exitX=0.5;exitY=1;exitDx=0;exitDy=0;entryX=0.25;entryY=0;entryDx=0;entryDy=0;fontColor=#FFFFFF;" edge="1" parent="1" source="7" target="10">
                    <mxGeometry relative="1" as="geometry"/>
                </mxCell>
                <mxCell id="30" value="creates&lt;br&gt;" style="edgeLabel;html=1;align=center;verticalAlign=middle;resizable=0;points=[];fontColor=#FFFFFF;" vertex="1" connectable="0" parent="29">
                    <mxGeometry x="0.48" y="-1" relative="1" as="geometry">
                        <mxPoint x="1" y="-22" as="offset"/>
                    </mxGeometry>
                </mxCell>
                <mxCell id="31" value="" style="group;fontColor=#FFFFFF;" vertex="1" connectable="0" parent="1">
                    <mxGeometry x="60" y="240" width="680" height="320" as="geometry"/>
                </mxCell>
                <mxCell id="10" value="" style="rounded=0;whiteSpace=wrap;html=1;fillColor=none;fontColor=#FFFFFF;" vertex="1" parent="31">
                    <mxGeometry width="680" height="320" as="geometry"/>
                </mxCell>
                <mxCell id="13" value="" style="group;fontColor=#FFFFFF;glass=0;" vertex="1" connectable="0" parent="31">
                    <mxGeometry x="40" y="100" width="200" height="120" as="geometry"/>
                </mxCell>
                <mxCell id="14" value="&amp;lt;&amp;lt; Interface &amp;gt;&amp;gt;&lt;br&gt;DataExtractionMethod" style="swimlane;whiteSpace=wrap;html=1;startSize=30;fontColor=#FFFFFF;swimlaneLine=1;glass=0;shadow=0;" vertex="1" parent="13">
                    <mxGeometry width="200" height="120" as="geometry">
                        <mxRectangle width="170" height="40" as="alternateBounds"/>
                    </mxGeometry>
                </mxCell>
                <mxCell id="15" value="extractData( String pathToFile)" style="text;html=1;align=center;verticalAlign=middle;resizable=0;points=[];autosize=1;strokeColor=none;fillColor=none;fontColor=#FFFFFF;" vertex="1" parent="14">
                    <mxGeometry y="70" width="190" height="30" as="geometry"/>
                </mxCell>
                <mxCell id="16" value="" style="endArrow=none;html=1;entryX=1;entryY=0.5;entryDx=0;entryDy=0;exitX=0;exitY=0.5;exitDx=0;exitDy=0;fontColor=#FFFFFF;" edge="1" parent="13" source="14" target="14">
                    <mxGeometry width="50" height="50" relative="1" as="geometry">
                        <mxPoint x="-120" y="230" as="sourcePoint"/>
                        <mxPoint x="-70" y="180" as="targetPoint"/>
                    </mxGeometry>
                </mxCell>
                <mxCell id="17" value="" style="group;fontColor=#FFFFFF;" vertex="1" connectable="0" parent="31">
                    <mxGeometry x="440" y="40" width="200" height="120" as="geometry"/>
                </mxCell>
                <mxCell id="18" value="IrisExtractionMethod" style="swimlane;whiteSpace=wrap;html=1;startSize=30;fontColor=#FFFFFF;" vertex="1" parent="17">
                    <mxGeometry width="200" height="110" as="geometry"/>
                </mxCell>
                <mxCell id="19" value="extractData( String pathToFile)" style="text;html=1;align=center;verticalAlign=middle;resizable=0;points=[];autosize=1;strokeColor=none;fillColor=none;fontColor=#FFFFFF;" vertex="1" parent="18">
                    <mxGeometry y="70" width="190" height="30" as="geometry"/>
                </mxCell>
                <mxCell id="20" value="" style="endArrow=none;html=1;entryX=1;entryY=0.5;entryDx=0;entryDy=0;exitX=0;exitY=0.5;exitDx=0;exitDy=0;fontColor=#FFFFFF;" edge="1" parent="17" source="18" target="18">
                    <mxGeometry width="50" height="50" relative="1" as="geometry">
                        <mxPoint x="-120" y="230" as="sourcePoint"/>
                        <mxPoint x="-70" y="180" as="targetPoint"/>
                    </mxGeometry>
                </mxCell>
                <mxCell id="21" value="" style="group;fontColor=#FFFFFF;" vertex="1" connectable="0" parent="31">
                    <mxGeometry x="440" y="170" width="200" height="110" as="geometry"/>
                </mxCell>
                <mxCell id="22" value="Point2DExtractionMethod" style="swimlane;whiteSpace=wrap;html=1;startSize=30;fontColor=#FFFFFF;" vertex="1" parent="21">
                    <mxGeometry width="200" height="110.00000000000001" as="geometry"/>
                </mxCell>
                <mxCell id="23" value="extractData( String pathToFile)" style="text;html=1;align=center;verticalAlign=middle;resizable=0;points=[];autosize=1;strokeColor=none;fillColor=none;fontColor=#FFFFFF;" vertex="1" parent="22">
                    <mxGeometry y="64.16666666666667" width="190" height="30" as="geometry"/>
                </mxCell>
                <mxCell id="24" value="" style="endArrow=none;html=1;entryX=1;entryY=0.5;entryDx=0;entryDy=0;exitX=0;exitY=0.5;exitDx=0;exitDy=0;fontColor=#FFFFFF;" edge="1" parent="21" source="22" target="22">
                    <mxGeometry width="50" height="50" relative="1" as="geometry">
                        <mxPoint x="-120" y="210.83333333333334" as="sourcePoint"/>
                        <mxPoint x="-70" y="165" as="targetPoint"/>
                        <Array as="points">
                            <mxPoint x="100" y="55"/>
                        </Array>
                    </mxGeometry>
                </mxCell>
                <mxCell id="25" style="edgeStyle=none;html=1;exitX=0;exitY=0.5;exitDx=0;exitDy=0;entryX=1;entryY=0.5;entryDx=0;entryDy=0;fontColor=#FFFFFF;" edge="1" parent="31" source="18" target="14">
                    <mxGeometry relative="1" as="geometry">
                        <Array as="points">
                            <mxPoint x="340" y="95"/>
                            <mxPoint x="340" y="160"/>
                        </Array>
                    </mxGeometry>
                </mxCell>
                <mxCell id="27" value="implements" style="edgeLabel;html=1;align=center;verticalAlign=middle;resizable=0;points=[];fontColor=#FFFFFF;" vertex="1" connectable="0" parent="25">
                    <mxGeometry x="-0.4777" y="2" relative="1" as="geometry">
                        <mxPoint x="9" y="-2" as="offset"/>
                    </mxGeometry>
                </mxCell>
                <mxCell id="26" style="edgeStyle=none;html=1;exitX=0;exitY=0.5;exitDx=0;exitDy=0;entryX=1;entryY=0.5;entryDx=0;entryDy=0;fontColor=#FFFFFF;" edge="1" parent="31" source="22" target="14">
                    <mxGeometry relative="1" as="geometry">
                        <Array as="points">
                            <mxPoint x="340" y="225"/>
                            <mxPoint x="340" y="160"/>
                        </Array>
                    </mxGeometry>
                </mxCell>
                <mxCell id="28" value="implements" style="edgeLabel;html=1;align=center;verticalAlign=middle;resizable=0;points=[];fontColor=#FFFFFF;" vertex="1" connectable="0" parent="26">
                    <mxGeometry x="-0.5381" relative="1" as="geometry">
                        <mxPoint as="offset"/>
                    </mxGeometry>
                </mxCell>
            </root>
        </mxGraphModel>
    </diagram>
</mxfile>